<svg width="20" height="20" viewBox="0 0 20 20" fill="none" xmlns="http://www.w3.org/2000/svg">
<g id="Icons">
<path id="Union" fill-rule="evenodd" clip-rule="evenodd" d="M12.5303 4.11527C12.5303 5.00737 11.8072 5.73055 10.9151 5.73055C10.023 5.73055 9.29979 5.00737 9.29979 4.11527C9.29979 3.22318 10.023 2.5 10.9151 2.5C11.8072 2.5 12.5303 3.22318 12.5303 4.11527ZM9.16045 14.272C9.38125 13.9776 9.32158 13.56 9.02719 13.3392C8.7328 13.1184 8.31517 13.1781 8.09437 13.4724L5.87337 16.4338C5.65258 16.7282 5.71224 17.1458 6.00663 17.3666C6.30102 17.5874 6.71866 17.5277 6.93945 17.2333L9.16045 14.272ZM9.28436 8.10203L8.71109 11.5417C8.67571 11.7539 8.74502 11.9702 8.89718 12.1224L11.0417 14.2669L12.474 17.1315C12.6386 17.4607 13.0388 17.5941 13.368 17.4295C13.6971 17.2649 13.8305 16.8647 13.6659 16.5356L12.1853 13.5742C12.1533 13.5102 12.1111 13.4517 12.0605 13.4011L10.0819 11.4225L10.553 8.59613L11.8582 9.90136C11.9314 9.97451 12.0205 10.0296 12.1187 10.0623L14.3397 10.8027C14.6888 10.919 15.0661 10.7304 15.1825 10.3813C15.2989 10.0322 15.1102 9.65481 14.7611 9.53844L12.6893 8.84785L10.5923 6.75085C10.496 6.64911 10.367 6.57678 10.2182 6.55198C10.121 6.53578 10.0252 6.5415 9.93589 6.56553L6.98544 7.30315C6.82463 7.34335 6.68459 7.44204 6.59264 7.57995L5.11198 9.80096C4.90785 10.1071 4.99059 10.5208 5.29677 10.7249C5.60296 10.9291 6.01664 10.8463 6.22077 10.5401L7.55855 8.53348L9.28436 8.10203Z" fill="#00BEF2"/>
</g>
</svg>
